<?xml version="1.0" encoding="utf-8"?>
<!-- Generator: Adobe Illustrator 24.0.0, SVG Export Plug-In . SVG Version: 6.00 Build 0)  -->
<svg version="1.1" id="Layer_1" xmlns="http://www.w3.org/2000/svg" xmlns:xlink="http://www.w3.org/1999/xlink" x="0px" y="0px"
	 viewBox="0 0 1432 201.7" style="enable-background:new 0 0 1432 201.7;" xml:space="preserve">
<style type="text/css">
	.st0{fill:#EC1C24;}
	.st1{font-family:'Alegreya-Regular';}
	.st2{font-size:113.5754px;}
</style>
<g>
	<polygon class="st0" points="112.5,5.8 88,32.8 137,32.8 	"/>
	<polygon class="st0" points="112.5,34 93.8,54.6 131.2,54.6 	"/>
	<polygon class="st0" points="112.5,57.2 96.2,75.2 128.8,75.2 	"/>
	<polygon class="st0" points="112.5,77.8 100.8,90.6 124.2,90.6 	"/>
	<polygon class="st0" points="112.5,93.2 102.2,108.6 122.8,108.6 	"/>
	<polygon class="st0" points="112.5,144.6 122.8,129.2 102.2,129.2 	"/>
	<polygon class="st0" points="112.5,167.3 126.7,150.8 98.3,150.8 	"/>
	<polygon class="st0" points="112.5,197.3 137,170.3 88,170.3 	"/>
	<polygon class="st0" points="155.8,52 172.1,34 139.4,34 	"/>
	<polygon class="st0" points="68.3,52 84.7,34 52,34 	"/>
	<polygon class="st0" points="66.6,151.5 50.3,169.5 82.9,169.5 	"/>
	<polygon class="st0" points="154,151.5 137.7,169.5 170.3,169.5 	"/>
	<polygon class="st0" points="45.2,75.2 63.9,54.6 26.5,54.6 	"/>
	<polygon class="st0" points="24.6,98.3 43.3,77.8 6,77.8 	"/>
	<polygon class="st0" points="60.6,98.3 79.3,77.8 42,77.8 	"/>
	<polygon class="st0" points="60.6,106 42,126.6 79.3,126.6 	"/>
	<polygon class="st0" points="24.6,106 6,126.6 43.3,126.6 	"/>
	<polygon class="st0" points="199.6,106 180.9,126.6 218.2,126.6 	"/>
	<polygon class="st0" points="162.1,106 143.4,126.6 180.8,126.6 	"/>
	<polygon class="st0" points="86.9,87.6 95.8,77.8 78,77.8 	"/>
	<polygon class="st0" points="79.2,98.3 85.5,90.6 72.8,90.6 	"/>
	<polygon class="st0" points="94.5,98.3 100.8,90.6 88.2,90.6 	"/>
	<polygon class="st0" points="112.5,124 118.8,116.3 106.2,116.3 	"/>
	<polygon class="st0" points="128.7,98.3 135.1,90.6 122.4,90.6 	"/>
	<polygon class="st0" points="145.6,98.3 151.9,90.6 139.2,90.6 	"/>
	<polygon class="st0" points="78.8,106.4 85.2,114.1 72.5,114.1 	"/>
	<polygon class="st0" points="94.1,106 100.5,113.8 87.8,113.8 	"/>
	<polygon class="st0" points="128.7,106 135.1,113.8 122.4,113.8 	"/>
	<polygon class="st0" points="145.6,106 151.9,113.8 139.2,113.8 	"/>
	<polygon class="st0" points="135.7,87.6 144.6,77.8 126.8,77.8 	"/>
	<polygon class="st0" points="87.8,113.7 78.9,126.6 96.7,126.6 	"/>
	<polygon class="st0" points="135.1,113.7 126.2,126.6 144,126.6 	"/>
	<polygon class="st0" points="163.5,98.3 182.1,77.8 144.8,77.8 	"/>
	<polygon class="st0" points="199.5,98.3 218.1,77.8 180.8,77.8 	"/>
	<polygon class="st0" points="176.3,75.2 195,54.6 157.7,54.6 	"/>
	<polygon class="st0" points="143.4,72.7 157.5,54.6 129.4,54.6 	"/>
	<polygon class="st0" points="79.2,72.7 93.2,54.6 65.1,54.6 	"/>
	<polygon class="st0" points="176.3,127.9 157.7,148.5 195,148.5 	"/>
	<polygon class="st0" points="45.2,127.9 26.5,148.5 63.9,148.5 	"/>
	<polygon class="st0" points="78.1,130.4 64,148.5 92.1,148.5 	"/>
	<polygon class="st0" points="142.4,130.4 128.3,148.5 156.4,148.5 	"/>
</g>
<text transform="matrix(1 0 0 1 240.9585 139.4649)" class="st1 st2">Lengkuas Grafik Sdn Bhd</text>
</svg>
